<svg width="105" height="35" viewBox="0 0 105 35" fill="none" xmlns="http://www.w3.org/2000/svg">
<path d="M55.9902 9C53.8171 9 51.2145 9 49.0415 9V26.5732C51.2145 26.5732 53.8171 26.5732 55.9902 26.5732C62.1808 26.5732 64.9098 22.0795 64.8339 17.636C64.7581 13.2929 62.0545 9 55.9902 9ZM52.3516 12.1381H55.9902C59.8309 12.1381 61.448 14.8745 61.5238 17.6109C61.5997 20.4728 60.0078 23.3849 55.9902 23.3849H52.3516V12.1381Z" fill="#222222"/>
<path d="M72.9169 13.9456C68.9499 13.9456 66.4736 16.8577 66.4736 20.3975C66.4736 23.9623 68.8993 26.8494 72.9422 26.8494C76.9851 26.8494 79.436 23.9623 79.436 20.3975C79.436 16.8577 76.884 13.9456 72.9169 13.9456ZM72.9422 16.7322C75.0142 16.7322 76.3281 18.5397 76.3281 20.3975C76.3281 22.2803 75.191 24.0377 72.9422 24.0377C70.6933 24.0377 69.5563 22.2803 69.5563 20.3975C69.5563 18.5397 70.7186 16.7322 72.9422 16.7322Z" fill="#222222"/>
<path d="M90.1804 22.9833C89.4224 23.7364 88.437 24.0126 87.4515 24.0126C85.5311 24.0126 83.914 22.7573 83.914 20.3975C83.914 18.2385 85.4301 16.7322 87.502 16.7322C88.3612 16.7322 89.2708 17.0586 90.0036 17.7113L91.9492 15.6778C90.5847 14.3473 89.2203 13.8452 87.4515 13.8452C83.8382 13.8452 80.8313 16.0042 80.8313 20.3975C80.8313 24.7908 83.8382 26.9498 87.4515 26.9498C89.2961 26.9498 90.8121 26.3975 92.2524 24.9916L90.1804 22.9833Z" fill="#222222"/>
<path d="M103.46 15.477C102.02 14.2218 100.555 13.8452 98.6089 13.8452C96.3348 13.8452 93.3532 14.8494 93.3532 17.7113C93.3532 20.523 96.1579 21.3766 98.5078 21.5523C100.277 21.6527 100.984 22.0042 100.984 22.8577C100.984 23.7615 99.8975 24.364 98.7352 24.3389C97.3455 24.3138 95.3241 23.5858 94.4397 22.6067L92.9236 24.7908C94.7429 26.6736 96.7138 27 98.6847 27C102.247 27 104.041 25.1172 104.041 22.9331C104.041 19.6444 101.06 19.1172 98.71 18.9665C97.1181 18.8661 96.3853 18.4142 96.3853 17.6109C96.3853 16.8326 97.1939 16.3808 98.6594 16.3808C99.847 16.3808 100.858 16.6569 101.742 17.4854L103.46 15.477Z" fill="#222222"/>
<line x1="41.5415" y1="6" x2="41.5415" y2="30" stroke="#DEDEDE"/>
<path d="M18.6928 35L18.7066 34.631C18.78 33.8907 18.9506 33.1634 19.214 32.4677C19.2859 32.2491 19.3597 32.0231 19.4262 31.8017C19.4584 31.7094 19.6033 31.6421 19.7435 31.5812C19.8015 31.5571 19.8581 31.53 19.9132 31.5C21.9031 30.5157 22.9935 28.8506 23.3459 26.2592C23.3913 25.7899 23.4024 25.3178 23.3791 24.8469C23.3468 23.5636 23.3145 22.2371 24.5977 21.274C24.6337 21.2389 24.6282 21.1642 24.6236 21.0987C24.6236 21.0784 24.6236 21.059 24.6236 21.0424C24.6171 20.8063 24.6236 20.5609 24.6291 20.3247C24.6875 19.6919 24.6229 19.0538 24.4391 18.4456C24.3597 18.2408 23.7933 18.2177 23.2536 18.1956C22.9963 18.1854 22.7297 18.1743 22.5156 18.1448C22.4666 18.1239 22.4206 18.0963 22.3791 18.0627C22.3321 18.0295 22.273 17.988 22.1946 17.9363V12.369C22.1946 11.7131 22.047 11.3016 21.3136 11.2795H21.214C21.0687 11.2634 20.9218 11.2769 20.7819 11.3193C20.6421 11.3616 20.5122 11.4319 20.4003 11.5258C20.3114 11.637 20.2459 11.765 20.2075 11.9021C20.1691 12.0392 20.1588 12.1826 20.1771 12.3238C20.1918 13.5876 20.1872 14.8321 20.1817 16.1504C20.1817 16.7961 20.1771 17.4585 20.1771 18.1208H14.8118C14.7795 18.0105 14.741 17.9021 14.6964 17.7961V17.762C14.6725 15.9493 14.6503 14.238 14.6734 12.464C14.6734 11.7481 14.5092 11.3044 13.6937 11.3044H13.6291C12.8376 11.3275 12.678 11.7472 12.678 12.417C12.678 13.0867 12.6854 13.7832 12.678 14.452C12.678 15.3459 12.6706 16.2694 12.6974 17.1707C12.7213 17.3219 12.7147 17.4764 12.678 17.625C12.6412 17.7736 12.575 17.9134 12.4833 18.036C12.3804 18.1222 12.261 18.1867 12.1324 18.2256C12.0038 18.2644 11.8687 18.2768 11.7352 18.262H11.654H11.583C11.0719 18.262 10.3081 18.4815 10.2859 18.631C10.2739 18.8053 10.2555 18.988 10.237 19.1845C10.1512 20.059 10.0525 21.048 10.4723 21.4862C10.971 22.0331 11.2585 22.7399 11.2832 23.4797C11.3754 24.191 11.4289 24.9225 11.4787 25.6291C11.5036 25.9825 11.5304 26.3469 11.5608 26.702C11.5834 27.6194 11.8514 28.5139 12.3368 29.2926C12.8222 30.0713 13.5073 30.7058 14.321 31.1301C15.8145 31.8303 15.9695 33.2343 16.083 34.2601C16.107 34.4954 16.1291 34.7399 16.1476 34.9871C12.8084 34.7233 9.61482 33.5084 6.94476 31.486C4.27471 29.4636 2.24003 26.7185 1.08162 23.5757C-0.0767989 20.4329 -0.310444 17.024 0.408341 13.7525C1.12713 10.481 2.76824 7.48398 5.1374 5.11622C8.3928 1.87002 12.7933 0.0327766 17.3905 0.000434312C21.9877 -0.031908 26.4136 1.74324 29.7144 4.94332C33.0151 8.1434 34.9264 12.5122 35.0365 17.1082C35.1465 21.7042 33.4464 26.1595 30.3025 29.5138C27.2705 32.7511 23.1198 34.7127 18.6937 35H18.6928ZM16.4345 28.345C16.4031 28.3175 16.368 28.2945 16.3302 28.2767C16.3044 28.2629 16.2767 28.2482 16.25 28.2297C16.5267 27.2721 16.8108 26.3395 17.1079 25.3773C16.5286 25.3053 16.0867 25.2601 15.5313 25.2159C16.5959 23.7251 17.595 22.2878 18.476 21.0203C18.5301 21.0639 18.5931 21.0954 18.6605 21.1125L18.2343 22.4723V22.4815V22.488C18.0747 22.9963 17.9095 23.5231 17.7398 24.0563C18.059 24.0839 18.357 24.1042 18.6725 24.1245C18.8865 24.1384 19.1116 24.1541 19.3625 24.1725C18.3625 25.583 17.4105 26.9511 16.4418 28.345H16.4345Z" fill="url(#paint0_linear)"/>
<defs>
<linearGradient id="paint0_linear" x1="-13.1055" y1="48.195" x2="48.9112" y2="-16.7334" gradientUnits="userSpaceOnUse">
<stop stop-color="#FB8240"/>
<stop offset="1" stop-color="#F46AA0"/>
</linearGradient>
</defs>
</svg>
