<svg width="245" height="35" viewBox="0 0 245 35" fill="none" xmlns="http://www.w3.org/2000/svg">
<path d="M196.447 9C194.274 9 191.671 9 189.498 9V26.5732C191.671 26.5732 194.274 26.5732 196.447 26.5732C202.638 26.5732 205.366 22.0795 205.291 17.636C205.215 13.2929 202.511 9 196.447 9ZM192.808 12.1381H196.447C200.288 12.1381 201.905 14.8745 201.981 17.6109C202.056 20.4728 200.465 23.3849 196.447 23.3849H192.808V12.1381Z" fill="#222222"/>
<path d="M213.374 13.9456C209.407 13.9456 206.93 16.8577 206.93 20.3975C206.93 23.9623 209.356 26.8494 213.399 26.8494C217.442 26.8494 219.893 23.9623 219.893 20.3975C219.893 16.8577 217.341 13.9456 213.374 13.9456ZM213.399 16.7322C215.471 16.7322 216.785 18.5397 216.785 20.3975C216.785 22.2803 215.648 24.0377 213.399 24.0377C211.15 24.0377 210.013 22.2803 210.013 20.3975C210.013 18.5397 211.175 16.7322 213.399 16.7322Z" fill="#222222"/>
<path d="M230.637 22.9833C229.879 23.7364 228.894 24.0126 227.908 24.0126C225.988 24.0126 224.371 22.7573 224.371 20.3975C224.371 18.2385 225.887 16.7322 227.959 16.7322C228.818 16.7322 229.728 17.0586 230.46 17.7113L232.406 15.6778C231.041 14.3473 229.677 13.8452 227.908 13.8452C224.295 13.8452 221.288 16.0042 221.288 20.3975C221.288 24.7908 224.295 26.9498 227.908 26.9498C229.753 26.9498 231.269 26.3975 232.709 24.9916L230.637 22.9833Z" fill="#222222"/>
<path d="M243.917 15.477C242.477 14.2218 241.011 13.8452 239.066 13.8452C236.792 13.8452 233.81 14.8494 233.81 17.7113C233.81 20.523 236.615 21.3766 238.965 21.5523C240.733 21.6527 241.441 22.0042 241.441 22.8577C241.441 23.7615 240.354 24.364 239.192 24.3389C237.802 24.3138 235.781 23.5858 234.896 22.6067L233.38 24.7908C235.2 26.6736 237.171 27 239.141 27C242.704 27 244.498 25.1172 244.498 22.9331C244.498 19.6444 241.517 19.1172 239.167 18.9665C237.575 18.8661 236.842 18.4142 236.842 17.6109C236.842 16.8326 237.651 16.3808 239.116 16.3808C240.304 16.3808 241.314 16.6569 242.199 17.4854L243.917 15.477Z" fill="#222222"/>
<line x1="181.998" y1="6" x2="181.998" y2="30" stroke="#DEDEDE"/>
<path d="M64.7895 10.9013C63.0028 9.13024 60.5894 8.13571 58.0737 8.13381C51.6936 8.13381 48.5164 12.8386 48.5164 17.9235C48.5164 22.6763 51.284 27.1486 58.0737 27.1486C59.4433 27.19 60.8044 26.9184 62.0532 26.3544C63.3021 25.7904 64.4058 24.9489 65.2803 23.894V16.274H57.5312V19.3183H62.1548V22.5213C61.0214 23.4937 59.5665 24.0093 58.0737 23.9678C53.5792 23.9678 51.8486 20.8977 51.8486 17.9272C51.8486 14.2076 54.1991 11.263 58.0737 11.263C59.7764 11.2802 61.4131 11.9238 62.6714 13.0711L64.7895 10.9013ZM81.9408 11.6246C80.5718 8.83492 77.653 8.03418 74.8375 8.03418C71.5054 8.06001 67.8375 9.584 67.8375 13.3036C67.8375 17.3626 71.2508 18.3405 74.9408 18.7796C77.3393 19.0379 79.1253 19.7353 79.1253 21.4401C79.1253 23.4032 77.1106 24.1523 74.9667 24.1523C72.7711 24.1523 70.6788 23.274 69.8781 21.2851L67.0368 22.7611C68.3799 26.0637 71.2213 27.1966 74.9113 27.1966C78.9408 27.1966 82.5054 25.4659 82.5054 21.4364C82.5054 17.1227 78.9925 16.1412 75.2176 15.6763C73.0478 15.4179 71.188 14.9788 71.188 13.4032C71.188 12.06 72.4021 11.0047 74.9334 11.0047C75.7568 10.9755 76.5753 11.143 77.321 11.4934C78.0667 11.8438 78.7182 12.3669 79.2213 13.0194L81.9408 11.6246Z" fill="#F87670"/>
<path d="M94.1624 11.8832H99.2768C103.613 11.8832 103.642 18.2891 99.2768 18.2891H94.1624V11.8832ZM99.2768 8.62854C96.4355 8.62854 93.5941 8.65437 90.7528 8.65437V26.7356H94.1661V21.4145H99.2805C108.137 21.4145 108.111 8.62854 99.2768 8.62854V8.62854ZM107.982 8.6802V26.7356H111.107V8.6802H107.982ZM113.948 14.0049V20.695C113.948 24.647 116.17 26.9459 119.218 26.9459C120.031 26.9543 120.837 26.7877 121.581 26.4572C122.325 26.1268 122.989 25.6403 123.528 25.0308L123.738 26.7614H126.554V14.0049H123.428V20.5142C123.457 20.9639 123.395 21.4149 123.246 21.8401C123.097 22.2653 122.863 22.656 122.559 22.9888C122.255 23.3216 121.887 23.5897 121.477 23.777C121.067 23.9643 120.624 24.0669 120.173 24.0787C118.159 24.0787 117.1 22.6027 117.1 20.6655V14.0049H113.948ZM138.074 14.3149C137.196 13.7844 136.179 13.5322 135.155 13.5916C134.298 13.5568 133.442 13.7 132.643 14.0121C131.844 14.3243 131.118 14.7987 130.511 15.4055C129.905 16.0122 129.43 16.7381 129.118 17.5374C128.806 18.3366 128.663 19.1919 128.697 20.0492C128.697 24.0271 131.177 26.4551 135.155 26.4551C136.731 26.4551 138.384 27.2559 138.384 29.0123C138.384 30.7688 136.963 31.7503 135.155 31.7503C133.347 31.7503 131.823 30.6655 131.823 29.0123H128.694C128.694 32.4477 131.461 34.695 135.151 34.695C138.841 34.695 141.531 32.5252 141.531 29.0123C141.585 28.1236 141.361 27.2402 140.889 26.485C140.418 25.7298 139.722 25.1402 138.9 24.7983C139.756 24.3466 140.465 23.6585 140.941 22.816C141.417 21.9734 141.641 21.0118 141.587 20.0455C141.636 18.6632 141.155 17.3143 140.244 16.2743L141.664 14.4662L139.34 12.7134L138.074 14.3149ZM135.151 16.4551C135.609 16.4584 136.061 16.5557 136.48 16.741C136.898 16.9263 137.274 17.1957 137.584 17.5323C137.894 17.869 138.132 18.2659 138.282 18.6982C138.432 19.1305 138.492 19.5891 138.458 20.0455C138.491 20.4992 138.431 20.955 138.279 21.3841C138.128 21.8132 137.89 22.2063 137.579 22.5388C137.269 22.8712 136.893 23.1357 136.475 23.3156C136.057 23.4956 135.606 23.587 135.151 23.5843C134.694 23.5921 134.24 23.5042 133.818 23.3263C133.397 23.1485 133.017 22.8845 132.703 22.5514C132.389 22.2183 132.149 21.8233 131.997 21.3918C131.844 20.9603 131.784 20.5017 131.819 20.0455C131.783 19.5867 131.843 19.1253 131.994 18.6906C132.145 18.2559 132.385 17.8573 132.698 17.5199C133.011 17.1826 133.391 16.9138 133.813 16.7305C134.235 16.5472 134.691 16.4535 135.151 16.4551ZM146.753 13.9496V26.7356H143.602V13.9496H146.753ZM143.317 10.4071C143.317 10.9004 143.513 11.3734 143.862 11.7222C144.211 12.071 144.684 12.2669 145.177 12.2669C145.67 12.2669 146.143 12.071 146.492 11.7222C146.841 11.3734 147.037 10.9004 147.037 10.4071C147.037 9.9139 146.841 9.44086 146.492 9.09208C146.143 8.7433 145.67 8.54736 145.177 8.54736C144.684 8.54736 144.211 8.7433 143.862 9.09208C143.513 9.44086 143.317 9.9139 143.317 10.4071ZM162.122 26.7356V20.0455C162.122 16.0418 159.723 13.7946 156.723 13.7946C155.932 13.8076 155.151 13.9841 154.431 14.3131C153.711 14.642 153.067 15.1162 152.539 15.706L152.332 13.9754H149.517V26.7356H152.642V20.2263C152.613 19.7766 152.675 19.3256 152.824 18.9004C152.974 18.4752 153.207 18.0845 153.511 17.7517C153.815 17.4189 154.183 17.1508 154.593 16.9635C155.003 16.7762 155.446 16.6736 155.897 16.6618C157.911 16.6618 158.971 18.1378 158.971 20.075V26.7356H162.122ZM174.912 15.3186C174.235 14.7256 173.449 14.2717 172.598 13.983C171.746 13.6942 170.846 13.5763 169.948 13.6359C167.624 13.6359 164.576 14.6691 164.576 17.6138C164.579 20.5105 167.439 21.385 169.845 21.5695C171.653 21.6728 172.376 22.0308 172.376 22.9127C172.376 23.8426 171.269 24.4625 170.078 24.4367C168.451 24.3723 166.898 23.7419 165.686 22.6544L164.137 24.9016C164.892 25.688 165.81 26.2991 166.827 26.6918C167.844 27.0846 168.935 27.2494 170.022 27.1747C173.664 27.1747 175.498 25.2374 175.498 22.9902C175.498 19.6064 172.454 19.064 170.048 18.909C168.424 18.802 167.675 18.3407 167.675 17.5105C167.675 16.7097 168.506 16.2448 170 16.2448C170.575 16.2134 171.15 16.2978 171.691 16.4931C172.232 16.6883 172.729 16.9904 173.151 17.3813L174.912 15.3186Z" fill="#222222"/>
<path d="M18.6928 35L18.7066 34.631C18.78 33.8907 18.9506 33.1634 19.214 32.4677C19.2859 32.2491 19.3597 32.0231 19.4262 31.8017C19.4584 31.7094 19.6033 31.6421 19.7435 31.5812C19.8015 31.5571 19.8581 31.53 19.9132 31.5C21.9031 30.5157 22.9935 28.8506 23.3459 26.2592C23.3913 25.7899 23.4024 25.3178 23.3791 24.8469C23.3468 23.5636 23.3145 22.2371 24.5977 21.274C24.6337 21.2389 24.6282 21.1642 24.6236 21.0987C24.6236 21.0784 24.6236 21.059 24.6236 21.0424C24.6171 20.8063 24.6236 20.5609 24.6291 20.3247C24.6875 19.6919 24.6229 19.0538 24.4391 18.4456C24.3597 18.2408 23.7933 18.2177 23.2536 18.1956C22.9963 18.1854 22.7297 18.1743 22.5156 18.1448C22.4666 18.1239 22.4206 18.0963 22.3791 18.0627C22.3321 18.0295 22.273 17.988 22.1946 17.9363V12.369C22.1946 11.7131 22.047 11.3016 21.3136 11.2795H21.214C21.0687 11.2634 20.9218 11.2769 20.7819 11.3193C20.6421 11.3616 20.5122 11.4319 20.4003 11.5258C20.3114 11.637 20.2459 11.765 20.2075 11.9021C20.1691 12.0392 20.1588 12.1826 20.1771 12.3238C20.1918 13.5876 20.1872 14.8321 20.1817 16.1504C20.1817 16.7961 20.1771 17.4585 20.1771 18.1208H14.8118C14.7795 18.0105 14.741 17.9021 14.6964 17.7961V17.762C14.6725 15.9493 14.6503 14.238 14.6734 12.464C14.6734 11.7481 14.5092 11.3044 13.6937 11.3044H13.6291C12.8376 11.3275 12.678 11.7472 12.678 12.417C12.678 13.0867 12.6854 13.7832 12.678 14.452C12.678 15.3459 12.6706 16.2694 12.6974 17.1707C12.7213 17.3219 12.7147 17.4764 12.678 17.625C12.6412 17.7736 12.575 17.9134 12.4833 18.036C12.3804 18.1222 12.261 18.1867 12.1324 18.2256C12.0038 18.2644 11.8687 18.2768 11.7352 18.262H11.654H11.583C11.0719 18.262 10.3081 18.4815 10.2859 18.631C10.2739 18.8053 10.2555 18.988 10.237 19.1845C10.1512 20.059 10.0525 21.048 10.4723 21.4862C10.971 22.0331 11.2585 22.7399 11.2832 23.4797C11.3754 24.191 11.4289 24.9225 11.4787 25.6291C11.5036 25.9825 11.5304 26.3469 11.5608 26.702C11.5834 27.6194 11.8514 28.5139 12.3368 29.2926C12.8222 30.0713 13.5073 30.7058 14.321 31.1301C15.8145 31.8303 15.9695 33.2343 16.083 34.2601C16.107 34.4954 16.1291 34.7399 16.1476 34.9871C12.8084 34.7233 9.61482 33.5084 6.94476 31.486C4.27471 29.4636 2.24003 26.7185 1.08162 23.5757C-0.0767989 20.4329 -0.310444 17.024 0.408341 13.7525C1.12713 10.481 2.76824 7.48398 5.1374 5.11622C8.3928 1.87002 12.7933 0.0327766 17.3905 0.000434312C21.9877 -0.031908 26.4136 1.74324 29.7144 4.94332C33.0151 8.1434 34.9264 12.5122 35.0365 17.1082C35.1465 21.7042 33.4464 26.1595 30.3025 29.5138C27.2705 32.7511 23.1198 34.7127 18.6937 35H18.6928ZM16.4345 28.345C16.4031 28.3175 16.368 28.2945 16.3302 28.2767C16.3044 28.2629 16.2767 28.2482 16.25 28.2297C16.5267 27.2721 16.8108 26.3395 17.1079 25.3773C16.5286 25.3053 16.0867 25.2601 15.5313 25.2159C16.5959 23.7251 17.595 22.2878 18.476 21.0203C18.5301 21.0639 18.5931 21.0954 18.6605 21.1125L18.2343 22.4723V22.4815V22.488C18.0747 22.9963 17.9095 23.5231 17.7398 24.0563C18.059 24.0839 18.357 24.1042 18.6725 24.1245C18.8865 24.1384 19.1116 24.1541 19.3625 24.1725C18.3625 25.583 17.4105 26.9511 16.4418 28.345H16.4345Z" fill="url(#paint0_linear)"/>
<defs>
<linearGradient id="paint0_linear" x1="-13.1055" y1="48.195" x2="48.9112" y2="-16.7334" gradientUnits="userSpaceOnUse">
<stop stop-color="#FB8240"/>
<stop offset="1" stop-color="#F46AA0"/>
</linearGradient>
</defs>
</svg>
